<svg width="92" height="98" viewBox="0 0 92 98" fill="none" xmlns="http://www.w3.org/2000/svg">
<mask id="path-1-outside-1_0_1" maskUnits="userSpaceOnUse" x="0" y="29.6799" width="92" height="68" fill="black">
<rect fill="white" y="29.6799" width="92" height="68"/>
<path d="M30.9375 64.6174C30.9375 63.5341 31.2083 62.6174 31.75 61.8674C32.2917 61.0758 33.0625 60.1383 34.0625 59.0549C35.0625 57.9716 36.2917 56.7633 37.75 55.4299C38.3333 54.9299 38.8542 54.6799 39.3125 54.6799C39.7708 54.6799 40.2917 54.9299 40.875 55.4299C43.7917 58.0133 45.9375 60.3674 47.3125 62.4924C47.6458 62.9924 47.8125 63.7008 47.8125 64.6174C47.8125 67.4508 48.875 69.8883 51 71.9299C53.125 74.0133 56.5625 75.0133 61.3125 74.9299C66.4375 74.8883 70.0208 73.6174 72.0625 71.1174C74.1042 68.6591 75.125 65.2841 75.125 60.9924V57.9924C75.125 55.2424 74.5417 53.3674 73.375 52.3674C72.2083 51.3674 70.2083 50.8674 67.375 50.8674H4.3125C3.0625 50.8674 2.1875 50.5966 1.6875 50.0549C1.22917 49.5549 1 48.6799 1 47.4299V34.1174C1 32.8674 1.22917 31.9716 1.6875 31.4299C2.1875 30.9299 3.0625 30.6799 4.3125 30.6799H73.875C78.0417 30.6799 81.3333 31.0549 83.75 31.8049C86.2083 32.5966 87.9583 34.0966 89 36.3049C90.0833 38.5549 90.625 41.8258 90.625 46.1174V60.9924C90.625 72.9508 88.2708 81.8049 83.5625 87.5549C78.8958 93.3049 71.7292 96.1799 62.0625 96.1799C54.8125 96.1799 48.8958 94.6591 44.3125 91.6174C39.7292 88.6174 36.3542 84.7008 34.1875 79.8674C32.0208 75.0758 30.9375 69.9924 30.9375 64.6174Z"/>
</mask>
<path d="M30.9375 64.6174C30.9375 63.5341 31.2083 62.6174 31.75 61.8674C32.2917 61.0758 33.0625 60.1383 34.0625 59.0549C35.0625 57.9716 36.2917 56.7633 37.75 55.4299C38.3333 54.9299 38.8542 54.6799 39.3125 54.6799C39.7708 54.6799 40.2917 54.9299 40.875 55.4299C43.7917 58.0133 45.9375 60.3674 47.3125 62.4924C47.6458 62.9924 47.8125 63.7008 47.8125 64.6174C47.8125 67.4508 48.875 69.8883 51 71.9299C53.125 74.0133 56.5625 75.0133 61.3125 74.9299C66.4375 74.8883 70.0208 73.6174 72.0625 71.1174C74.1042 68.6591 75.125 65.2841 75.125 60.9924V57.9924C75.125 55.2424 74.5417 53.3674 73.375 52.3674C72.2083 51.3674 70.2083 50.8674 67.375 50.8674H4.3125C3.0625 50.8674 2.1875 50.5966 1.6875 50.0549C1.22917 49.5549 1 48.6799 1 47.4299V34.1174C1 32.8674 1.22917 31.9716 1.6875 31.4299C2.1875 30.9299 3.0625 30.6799 4.3125 30.6799H73.875C78.0417 30.6799 81.3333 31.0549 83.75 31.8049C86.2083 32.5966 87.9583 34.0966 89 36.3049C90.0833 38.5549 90.625 41.8258 90.625 46.1174V60.9924C90.625 72.9508 88.2708 81.8049 83.5625 87.5549C78.8958 93.3049 71.7292 96.1799 62.0625 96.1799C54.8125 96.1799 48.8958 94.6591 44.3125 91.6174C39.7292 88.6174 36.3542 84.7008 34.1875 79.8674C32.0208 75.0758 30.9375 69.9924 30.9375 64.6174Z" fill="#00C8FF"/>
<path d="M31.75 61.8674L32.5607 62.4529L32.5681 62.4426L32.5753 62.4321L31.75 61.8674ZM37.75 55.4299L37.0992 54.6707L37.0871 54.6811L37.0752 54.6919L37.75 55.4299ZM40.875 55.4299L41.538 54.6813L41.532 54.676L41.5258 54.6707L40.875 55.4299ZM47.3125 62.4924L46.4729 63.0357L46.4805 63.0471L47.3125 62.4924ZM51 71.9299L51.7001 71.2158L51.6928 71.2088L51 71.9299ZM61.3125 74.9299L61.3044 73.9299L61.295 73.9301L61.3125 74.9299ZM72.0625 71.1174L71.2932 70.4785L71.288 70.4849L72.0625 71.1174ZM1.6875 50.0549L0.950348 50.7307L0.952698 50.7332L1.6875 50.0549ZM1.6875 31.4299L0.980392 30.7228L0.950989 30.7522L0.924118 30.784L1.6875 31.4299ZM83.75 31.8049L84.0565 30.853L84.0464 30.8499L83.75 31.8049ZM89 36.3049L88.0955 36.7316L88.099 36.7387L89 36.3049ZM83.5625 87.5549L82.7888 86.9214L82.786 86.9248L83.5625 87.5549ZM44.3125 91.6174L44.8655 90.7842L44.8602 90.7807L44.3125 91.6174ZM34.1875 79.8674L35.1 79.4584L35.0987 79.4554L34.1875 79.8674ZM30.9375 64.6174H31.9375C31.9375 63.7072 32.1622 63.0047 32.5607 62.4529L31.75 61.8674L30.9393 61.2819C30.2545 62.2301 29.9375 63.361 29.9375 64.6174H30.9375ZM31.75 61.8674L32.5753 62.4321C33.0792 61.6957 33.8147 60.7977 34.7973 59.7332L34.0625 59.0549L33.3277 58.3767C32.3103 59.4789 31.5041 60.4559 30.9247 61.3027L31.75 61.8674ZM34.0625 59.0549L34.7973 59.7332C35.773 58.6762 36.9808 57.4882 38.4248 56.168L37.75 55.4299L37.0752 54.6919C35.6026 56.0383 34.352 57.267 33.3277 58.3767L34.0625 59.0549ZM37.75 55.4299L38.4008 56.1892C38.916 55.7476 39.2085 55.6799 39.3125 55.6799V54.6799V53.6799C38.4998 53.6799 37.7507 54.1123 37.0992 54.6707L37.75 55.4299ZM39.3125 54.6799V55.6799C39.4165 55.6799 39.709 55.7476 40.2242 56.1892L40.875 55.4299L41.5258 54.6707C40.8743 54.1123 40.1252 53.6799 39.3125 53.6799V54.6799ZM40.875 55.4299L40.212 56.1785C43.0931 58.7304 45.1662 61.0161 46.4729 63.0357L47.3125 62.4924L48.1521 61.9492C46.7088 59.7187 44.4902 57.2962 41.538 54.6813L40.875 55.4299ZM47.3125 62.4924L46.4805 63.0471C46.6607 63.3176 46.8125 63.8015 46.8125 64.6174H47.8125H48.8125C48.8125 63.6 48.6309 62.6673 48.1445 61.9377L47.3125 62.4924ZM47.8125 64.6174H46.8125C46.8125 67.7349 47.9948 70.4293 50.3072 72.651L51 71.9299L51.6928 71.2088C49.7552 69.3472 48.8125 67.1666 48.8125 64.6174H47.8125ZM51 71.9299L50.2999 72.644C52.7037 75.0006 56.4664 76.0151 61.33 75.9298L61.3125 74.9299L61.295 73.9301C56.6586 74.0114 53.5463 73.0259 51.7001 71.2159L51 71.9299ZM61.3125 74.9299L61.3206 75.9299C66.5691 75.8872 70.5196 74.5876 72.837 71.75L72.0625 71.1174L71.288 70.4849C69.522 72.6473 66.3059 73.8893 61.3044 73.93L61.3125 74.9299ZM72.0625 71.1174L72.8318 71.7563C75.0669 69.0651 76.125 65.4372 76.125 60.9924H75.125H74.125C74.125 65.131 73.1415 68.2531 71.2932 70.4785L72.0625 71.1174ZM75.125 60.9924H76.125V57.9924H75.125H74.125V60.9924H75.125ZM75.125 57.9924H76.125C76.125 55.1667 75.5377 52.9041 74.0258 51.6082L73.375 52.3674L72.7242 53.1267C73.5456 53.8308 74.125 55.3182 74.125 57.9924H75.125ZM73.375 52.3674L74.0258 51.6082C72.5775 50.3668 70.269 49.8674 67.375 49.8674V50.8674V51.8674C70.1477 51.8674 71.8391 52.3681 72.7242 53.1267L73.375 52.3674ZM67.375 50.8674V49.8674H4.3125V50.8674V51.8674H67.375V50.8674ZM4.3125 50.8674V49.8674C3.15715 49.8674 2.63641 49.6086 2.4223 49.3767L1.6875 50.0549L0.952698 50.7332C1.73859 51.5846 2.96785 51.8674 4.3125 51.8674V50.8674ZM1.6875 50.0549L2.42465 49.3792C2.22978 49.1666 2 48.6179 2 47.4299H1H0C0 48.742 0.228561 49.9433 0.950348 50.7307L1.6875 50.0549ZM1 47.4299H2V34.1174H1H0V47.4299H1ZM1 34.1174H2C2 32.9416 2.22484 32.343 2.45088 32.0759L1.6875 31.4299L0.924118 30.784C0.23349 31.6002 0 32.7933 0 34.1174H1ZM1.6875 31.4299L2.39461 32.137C2.60669 31.925 3.1402 31.6799 4.3125 31.6799V30.6799V29.6799C2.9848 29.6799 1.76831 29.9349 0.980392 30.7228L1.6875 31.4299ZM4.3125 30.6799V31.6799H73.875V30.6799V29.6799H4.3125V30.6799ZM73.875 30.6799V31.6799C77.9972 31.6799 81.1748 32.0528 83.4536 32.76L83.75 31.8049L84.0464 30.8499C81.4919 30.0571 78.0861 29.6799 73.875 29.6799V30.6799ZM83.75 31.8049L83.4435 32.7568C85.6555 33.4691 87.1794 34.7893 88.0956 36.7316L89 36.3049L89.9044 35.8783C88.7373 33.4039 86.7612 31.7241 84.0565 30.8531L83.75 31.8049ZM89 36.3049L88.099 36.7387C89.0862 38.789 89.625 41.8828 89.625 46.1174H90.625H91.625C91.625 41.7688 91.0805 38.3208 89.901 35.8711L89 36.3049ZM90.625 46.1174H89.625V60.9924H90.625H91.625V46.1174H90.625ZM90.625 60.9924H89.625C89.625 72.8511 87.2849 81.4305 82.7888 86.9214L83.5625 87.5549L84.3362 88.1885C89.2567 82.1793 91.625 73.0504 91.625 60.9924H90.625ZM83.5625 87.5549L82.786 86.9248C78.364 92.3734 71.527 95.1799 62.0625 95.1799V96.1799V97.1799C71.9314 97.1799 79.4277 94.2365 84.339 88.1851L83.5625 87.5549ZM62.0625 96.1799V95.1799C54.9477 95.1799 49.2402 93.6875 44.8654 90.7842L44.3125 91.6174L43.7596 92.4506C48.5515 95.6307 54.6773 97.1799 62.0625 97.1799V96.1799ZM44.3125 91.6174L44.8602 90.7807C40.4311 87.8817 37.1857 84.111 35.1 79.4584L34.1875 79.8674L33.275 80.2765C35.5227 85.2905 39.0273 89.3532 43.7648 92.4541L44.3125 91.6174ZM34.1875 79.8674L35.0987 79.4554C32.9919 74.7961 31.9375 69.8536 31.9375 64.6174H30.9375H29.9375C29.9375 70.1313 31.0498 75.3554 33.2763 80.2794L34.1875 79.8674Z" fill="black" mask="url(#path-1-outside-1_0_1)"/>
<mask id="path-3-outside-2_0_1" maskUnits="userSpaceOnUse" x="14" y="-0.320068" width="68" height="19" fill="black">
<rect fill="white" x="14" y="-0.320068" width="68" height="19"/>
<path d="M31.208 8.93593C31.208 11.2399 30.44 13.1599 28.904 14.6959C27.4533 16.3173 25.6187 17.1279 23.4 17.1279C21.1813 17.1279 19.2613 16.3173 17.64 14.6959C16.104 13.1599 15.336 11.2826 15.336 9.06393C15.336 6.84527 16.104 4.92527 17.64 3.30393C19.2613 1.76793 21.1813 0.999932 23.4 0.999932C25.6187 0.999932 27.4533 1.76793 28.904 3.30393C30.44 4.83993 31.208 6.71727 31.208 8.93593ZM81 8.93593C81 11.2399 80.232 13.1599 78.696 14.6959C77.2453 16.3173 75.4107 17.1279 73.192 17.1279C70.9733 17.1279 69.0533 16.3173 67.432 14.6959C65.896 13.1599 65.128 11.2826 65.128 9.06393C65.128 6.84527 65.896 4.92527 67.432 3.30393C69.0533 1.76793 70.9733 0.999932 73.192 0.999932C75.4107 0.999932 77.2453 1.76793 78.696 3.30393C80.232 4.83993 81 6.71727 81 8.93593Z"/>
</mask>
<path d="M31.208 8.93593C31.208 11.2399 30.44 13.1599 28.904 14.6959C27.4533 16.3173 25.6187 17.1279 23.4 17.1279C21.1813 17.1279 19.2613 16.3173 17.64 14.6959C16.104 13.1599 15.336 11.2826 15.336 9.06393C15.336 6.84527 16.104 4.92527 17.64 3.30393C19.2613 1.76793 21.1813 0.999932 23.4 0.999932C25.6187 0.999932 27.4533 1.76793 28.904 3.30393C30.44 4.83993 31.208 6.71727 31.208 8.93593ZM81 8.93593C81 11.2399 80.232 13.1599 78.696 14.6959C77.2453 16.3173 75.4107 17.1279 73.192 17.1279C70.9733 17.1279 69.0533 16.3173 67.432 14.6959C65.896 13.1599 65.128 11.2826 65.128 9.06393C65.128 6.84527 65.896 4.92527 67.432 3.30393C69.0533 1.76793 70.9733 0.999932 73.192 0.999932C75.4107 0.999932 77.2453 1.76793 78.696 3.30393C80.232 4.83993 81 6.71727 81 8.93593Z" fill="#00C8FF"/>
<path d="M28.904 14.6959L28.1969 13.9888L28.1773 14.0085L28.1588 14.0291L28.904 14.6959ZM17.64 14.6959L18.3471 13.9888V13.9888L17.64 14.6959ZM17.64 3.30393L16.9523 2.57798L16.9326 2.59657L16.914 2.61619L17.64 3.30393ZM28.904 3.30393L28.177 3.99056L28.1868 4.00094L28.1969 4.01104L28.904 3.30393ZM78.696 14.6959L77.9889 13.9888L77.9693 14.0085L77.9508 14.0291L78.696 14.6959ZM67.432 14.6959L68.1391 13.9888V13.9888L67.432 14.6959ZM67.432 3.30393L66.7443 2.57798L66.7246 2.59657L66.7061 2.61619L67.432 3.30393ZM78.696 3.30393L77.969 3.99056L77.9788 4.00094L77.9889 4.01104L78.696 3.30393ZM31.208 8.93593H30.208C30.208 10.9926 29.5331 12.6526 28.1969 13.9888L28.904 14.6959L29.6111 15.403C31.3469 13.6672 32.208 11.4873 32.208 8.93593H31.208ZM28.904 14.6959L28.1588 14.0291C26.902 15.4337 25.3406 16.1279 23.4 16.1279V17.1279V18.1279C25.8967 18.1279 28.0046 17.2008 29.6492 15.3627L28.904 14.6959ZM23.4 17.1279V16.1279C21.4563 16.1279 19.7879 15.4296 18.3471 13.9888L17.64 14.6959L16.9329 15.403C18.7348 17.2049 20.9064 18.1279 23.4 18.1279V17.1279ZM17.64 14.6959L18.3471 13.9888C17.0031 12.6448 16.336 11.0237 16.336 9.06393H15.336H14.336C14.336 11.5415 15.2049 13.6751 16.9329 15.403L17.64 14.6959ZM15.336 9.06393H16.336C16.336 7.10302 17.0046 5.42864 18.366 3.99168L17.64 3.30393L16.914 2.61619C15.2034 4.42189 14.336 6.58751 14.336 9.06393H15.336ZM17.64 3.30393L18.3277 4.02989C19.7647 2.66855 21.4391 1.99993 23.4 1.99993V0.999932V-6.77109e-05C20.9236 -6.77109e-05 18.758 0.867312 16.9523 2.57798L17.64 3.30393ZM23.4 0.999932V1.99993C25.359 1.99993 26.9256 2.66557 28.177 3.99056L28.904 3.30393L29.631 2.61731C27.9811 0.870297 25.8783 -6.77109e-05 23.4 -6.77109e-05V0.999932ZM28.904 3.30393L28.1969 4.01104C29.5409 5.35506 30.208 6.97613 30.208 8.93593H31.208H32.208C32.208 6.4584 31.3391 4.32481 29.6111 2.59683L28.904 3.30393ZM81 8.93593H80C80 10.9926 79.3251 12.6526 77.9889 13.9888L78.696 14.6959L79.4031 15.403C81.1389 13.6672 82 11.4873 82 8.93593H81ZM78.696 14.6959L77.9508 14.0291C76.694 15.4337 75.1326 16.1279 73.192 16.1279V17.1279V18.1279C75.6887 18.1279 77.7966 17.2008 79.4412 15.3627L78.696 14.6959ZM73.192 17.1279V16.1279C71.2483 16.1279 69.5799 15.4296 68.1391 13.9888L67.432 14.6959L66.7249 15.403C68.5267 17.2049 70.6984 18.1279 73.192 18.1279V17.1279ZM67.432 14.6959L68.1391 13.9888C66.7951 12.6448 66.128 11.0237 66.128 9.06393H65.128H64.128C64.128 11.5415 64.9969 13.6751 66.7249 15.403L67.432 14.6959ZM65.128 9.06393H66.128C66.128 7.10302 66.7966 5.42864 68.158 3.99168L67.432 3.30393L66.7061 2.61619C64.9954 4.42189 64.128 6.58751 64.128 9.06393H65.128ZM67.432 3.30393L68.1198 4.02988C69.5567 2.66855 71.2311 1.99993 73.192 1.99993V0.999932V-6.77109e-05C70.7156 -6.77109e-05 68.55 0.867312 66.7443 2.57798L67.432 3.30393ZM73.192 0.999932V1.99993C75.151 1.99993 76.7176 2.66557 77.969 3.99056L78.696 3.30393L79.423 2.61731C77.7731 0.870297 75.6703 -6.77109e-05 73.192 -6.77109e-05V0.999932ZM78.696 3.30393L77.9889 4.01104C79.3329 5.35506 80 6.97613 80 8.93593H81H82C82 6.4584 81.1311 4.32481 79.4031 2.59683L78.696 3.30393Z" fill="black" mask="url(#path-3-outside-2_0_1)"/>
<circle cx="73" cy="8.67993" r="3" fill="black"/>
<circle cx="23" cy="8.67993" r="3" fill="black"/>
</svg>
